<svg xmlns="http://www.w3.org/2000/svg" width="2400" height="900" viewBox="0 0 2400 900" preserveAspectRatio="xMidYMax slice">
<rect x="0" y="463" width="149" height="437" fill="#050a13"/>
<rect x="43" y="400" width="70" height="63" fill="#050a13"/>
<rect x="76" y="314" width="4" height="86" fill="#050a13"/>
<circle cx="78" cy="309" r="4" fill="#ff6b6b" opacity="0.75"/>
<rect x="14" y="485" width="11" height="15" fill="#ffd9a0" opacity="0.59"/>
<rect x="66" y="485" width="11" height="15" fill="#ffd9a0" opacity="0.52"/>
<rect x="66" y="519" width="11" height="15" fill="#ffd9a0" opacity="0.47"/>
<rect x="92" y="553" width="11" height="15" fill="#bcd8ff" opacity="0.55"/>
<rect x="14" y="587" width="11" height="15" fill="#ffd9a0" opacity="0.36"/>
<rect x="66" y="587" width="11" height="15" fill="#bcd8ff" opacity="0.36"/>
<rect x="118" y="587" width="11" height="15" fill="#ffd9a0" opacity="0.73"/>
<rect x="118" y="621" width="11" height="15" fill="#bcd8ff" opacity="0.56"/>
<rect x="92" y="723" width="11" height="15" fill="#bcd8ff" opacity="0.41"/>
<rect x="118" y="723" width="11" height="15" fill="#ffd9a0" opacity="0.72"/>
<rect x="118" y="757" width="11" height="15" fill="#ffd9a0" opacity="0.64"/>
<rect x="14" y="825" width="11" height="15" fill="#bcd8ff" opacity="0.59"/>
<rect x="92" y="825" width="11" height="15" fill="#bcd8ff" opacity="0.56"/>
<rect x="40" y="859" width="11" height="15" fill="#ffd9a0" opacity="0.74"/>
<rect x="175" y="578" width="186" height="322" fill="#050a13"/>
<rect x="189" y="600" width="11" height="15" fill="#ffd9a0" opacity="0.52"/>
<rect x="319" y="600" width="11" height="15" fill="#ffd9a0" opacity="0.49"/>
<rect x="215" y="702" width="11" height="15" fill="#ffd9a0" opacity="0.54"/>
<rect x="293" y="702" width="11" height="15" fill="#ffd9a0" opacity="0.60"/>
<rect x="319" y="736" width="11" height="15" fill="#bcd8ff" opacity="0.68"/>
<rect x="189" y="770" width="11" height="15" fill="#ffd9a0" opacity="0.48"/>
<rect x="293" y="770" width="11" height="15" fill="#ffd9a0" opacity="0.55"/>
<rect x="267" y="804" width="11" height="15" fill="#ffd9a0" opacity="0.60"/>
<rect x="293" y="838" width="11" height="15" fill="#ffd9a0" opacity="0.48"/>
<rect x="189" y="872" width="11" height="15" fill="#ffd9a0" opacity="0.73"/>
<rect x="241" y="872" width="11" height="15" fill="#ffd9a0" opacity="0.60"/>
<rect x="267" y="872" width="11" height="15" fill="#bcd8ff" opacity="0.61"/>
<rect x="319" y="872" width="11" height="15" fill="#ffd9a0" opacity="0.60"/>
<rect x="387" y="386" width="243" height="514" fill="#050a13"/>
<rect x="413" y="317" width="140" height="69" fill="#050a13"/>
<rect x="427" y="408" width="11" height="15" fill="#ffd9a0" opacity="0.54"/>
<rect x="505" y="408" width="11" height="15" fill="#bcd8ff" opacity="0.79"/>
<rect x="583" y="442" width="11" height="15" fill="#bcd8ff" opacity="0.48"/>
<rect x="427" y="476" width="11" height="15" fill="#bcd8ff" opacity="0.80"/>
<rect x="557" y="510" width="11" height="15" fill="#bcd8ff" opacity="0.44"/>
<rect x="583" y="510" width="11" height="15" fill="#bcd8ff" opacity="0.72"/>
<rect x="609" y="510" width="11" height="15" fill="#bcd8ff" opacity="0.40"/>
<rect x="531" y="578" width="11" height="15" fill="#ffd9a0" opacity="0.49"/>
<rect x="401" y="646" width="11" height="15" fill="#ffd9a0" opacity="0.38"/>
<rect x="531" y="646" width="11" height="15" fill="#ffd9a0" opacity="0.80"/>
<rect x="453" y="680" width="11" height="15" fill="#ffd9a0" opacity="0.51"/>
<rect x="479" y="714" width="11" height="15" fill="#ffd9a0" opacity="0.66"/>
<rect x="505" y="714" width="11" height="15" fill="#ffd9a0" opacity="0.58"/>
<rect x="401" y="748" width="11" height="15" fill="#bcd8ff" opacity="0.37"/>
<rect x="427" y="748" width="11" height="15" fill="#bcd8ff" opacity="0.79"/>
<rect x="505" y="748" width="11" height="15" fill="#bcd8ff" opacity="0.38"/>
<rect x="427" y="782" width="11" height="15" fill="#ffd9a0" opacity="0.51"/>
<rect x="531" y="782" width="11" height="15" fill="#bcd8ff" opacity="0.63"/>
<rect x="583" y="782" width="11" height="15" fill="#bcd8ff" opacity="0.74"/>
<rect x="453" y="850" width="11" height="15" fill="#bcd8ff" opacity="0.41"/>
<rect x="609" y="850" width="11" height="15" fill="#ffd9a0" opacity="0.75"/>
<rect x="656" y="279" width="131" height="621" fill="#050a13"/>
<rect x="710" y="228" width="47" height="51" fill="#050a13"/>
<rect x="670" y="335" width="11" height="15" fill="#ffd9a0" opacity="0.38"/>
<rect x="670" y="471" width="11" height="15" fill="#ffd9a0" opacity="0.73"/>
<rect x="722" y="471" width="11" height="15" fill="#ffd9a0" opacity="0.46"/>
<rect x="670" y="539" width="11" height="15" fill="#ffd9a0" opacity="0.42"/>
<rect x="748" y="607" width="11" height="15" fill="#bcd8ff" opacity="0.41"/>
<rect x="696" y="641" width="11" height="15" fill="#ffd9a0" opacity="0.63"/>
<rect x="722" y="641" width="11" height="15" fill="#ffd9a0" opacity="0.46"/>
<rect x="670" y="743" width="11" height="15" fill="#ffd9a0" opacity="0.76"/>
<rect x="748" y="845" width="11" height="15" fill="#ffd9a0" opacity="0.73"/>
<rect x="813" y="482" width="232" height="418" fill="#050a13"/>
<rect x="948" y="386" width="79" height="96" fill="#050a13"/>
<rect x="985" y="298" width="4" height="88" fill="#050a13"/>
<circle cx="987" cy="293" r="4" fill="#ff6b6b" opacity="0.75"/>
<rect x="853" y="504" width="11" height="15" fill="#bcd8ff" opacity="0.66"/>
<rect x="853" y="538" width="11" height="15" fill="#ffd9a0" opacity="0.36"/>
<rect x="879" y="538" width="11" height="15" fill="#bcd8ff" opacity="0.68"/>
<rect x="983" y="538" width="11" height="15" fill="#ffd9a0" opacity="0.56"/>
<rect x="1009" y="538" width="11" height="15" fill="#bcd8ff" opacity="0.44"/>
<rect x="827" y="572" width="11" height="15" fill="#ffd9a0" opacity="0.51"/>
<rect x="1009" y="572" width="11" height="15" fill="#bcd8ff" opacity="0.61"/>
<rect x="879" y="606" width="11" height="15" fill="#ffd9a0" opacity="0.41"/>
<rect x="1009" y="606" width="11" height="15" fill="#ffd9a0" opacity="0.48"/>
<rect x="827" y="674" width="11" height="15" fill="#bcd8ff" opacity="0.36"/>
<rect x="931" y="674" width="11" height="15" fill="#bcd8ff" opacity="0.47"/>
<rect x="983" y="674" width="11" height="15" fill="#ffd9a0" opacity="0.48"/>
<rect x="879" y="742" width="11" height="15" fill="#ffd9a0" opacity="0.43"/>
<rect x="905" y="742" width="11" height="15" fill="#ffd9a0" opacity="0.69"/>
<rect x="879" y="776" width="11" height="15" fill="#ffd9a0" opacity="0.47"/>
<rect x="983" y="776" width="11" height="15" fill="#ffd9a0" opacity="0.65"/>
<rect x="931" y="810" width="11" height="15" fill="#ffd9a0" opacity="0.48"/>
<rect x="957" y="844" width="11" height="15" fill="#bcd8ff" opacity="0.39"/>
<rect x="983" y="844" width="11" height="15" fill="#ffd9a0" opacity="0.65"/>
<rect x="1071" y="374" width="163" height="526" fill="#050a13"/>
<rect x="1163" y="430" width="11" height="15" fill="#ffd9a0" opacity="0.47"/>
<rect x="1085" y="464" width="11" height="15" fill="#bcd8ff" opacity="0.66"/>
<rect x="1111" y="498" width="11" height="15" fill="#ffd9a0" opacity="0.77"/>
<rect x="1189" y="566" width="11" height="15" fill="#ffd9a0" opacity="0.42"/>
<rect x="1137" y="600" width="11" height="15" fill="#bcd8ff" opacity="0.63"/>
<rect x="1163" y="600" width="11" height="15" fill="#bcd8ff" opacity="0.77"/>
<rect x="1189" y="634" width="11" height="15" fill="#bcd8ff" opacity="0.70"/>
<rect x="1189" y="702" width="11" height="15" fill="#bcd8ff" opacity="0.78"/>
<rect x="1163" y="736" width="11" height="15" fill="#bcd8ff" opacity="0.51"/>
<rect x="1111" y="770" width="11" height="15" fill="#ffd9a0" opacity="0.53"/>
<rect x="1137" y="770" width="11" height="15" fill="#ffd9a0" opacity="0.56"/>
<rect x="1163" y="770" width="11" height="15" fill="#ffd9a0" opacity="0.60"/>
<rect x="1085" y="804" width="11" height="15" fill="#ffd9a0" opacity="0.48"/>
<rect x="1189" y="804" width="11" height="15" fill="#ffd9a0" opacity="0.79"/>
<rect x="1085" y="838" width="11" height="15" fill="#bcd8ff" opacity="0.74"/>
<rect x="1111" y="872" width="11" height="15" fill="#ffd9a0" opacity="0.52"/>
<rect x="1260" y="414" width="167" height="486" fill="#050a13"/>
<rect x="1274" y="436" width="11" height="15" fill="#ffd9a0" opacity="0.38"/>
<rect x="1378" y="436" width="11" height="15" fill="#bcd8ff" opacity="0.66"/>
<rect x="1404" y="436" width="11" height="15" fill="#bcd8ff" opacity="0.47"/>
<rect x="1274" y="470" width="11" height="15" fill="#ffd9a0" opacity="0.52"/>
<rect x="1378" y="504" width="11" height="15" fill="#ffd9a0" opacity="0.59"/>
<rect x="1300" y="538" width="11" height="15" fill="#ffd9a0" opacity="0.58"/>
<rect x="1326" y="538" width="11" height="15" fill="#bcd8ff" opacity="0.79"/>
<rect x="1352" y="538" width="11" height="15" fill="#ffd9a0" opacity="0.68"/>
<rect x="1274" y="572" width="11" height="15" fill="#ffd9a0" opacity="0.44"/>
<rect x="1326" y="572" width="11" height="15" fill="#ffd9a0" opacity="0.41"/>
<rect x="1378" y="572" width="11" height="15" fill="#ffd9a0" opacity="0.37"/>
<rect x="1404" y="572" width="11" height="15" fill="#ffd9a0" opacity="0.39"/>
<rect x="1352" y="606" width="11" height="15" fill="#ffd9a0" opacity="0.55"/>
<rect x="1300" y="640" width="11" height="15" fill="#ffd9a0" opacity="0.73"/>
<rect x="1378" y="640" width="11" height="15" fill="#ffd9a0" opacity="0.51"/>
<rect x="1326" y="674" width="11" height="15" fill="#ffd9a0" opacity="0.56"/>
<rect x="1378" y="708" width="11" height="15" fill="#bcd8ff" opacity="0.72"/>
<rect x="1274" y="810" width="11" height="15" fill="#ffd9a0" opacity="0.77"/>
<rect x="1453" y="526" width="248" height="374" fill="#050a13"/>
<rect x="1597" y="548" width="11" height="15" fill="#bcd8ff" opacity="0.44"/>
<rect x="1519" y="582" width="11" height="15" fill="#bcd8ff" opacity="0.53"/>
<rect x="1545" y="582" width="11" height="15" fill="#ffd9a0" opacity="0.75"/>
<rect x="1597" y="616" width="11" height="15" fill="#bcd8ff" opacity="0.51"/>
<rect x="1675" y="616" width="11" height="15" fill="#bcd8ff" opacity="0.60"/>
<rect x="1571" y="650" width="11" height="15" fill="#ffd9a0" opacity="0.44"/>
<rect x="1623" y="650" width="11" height="15" fill="#ffd9a0" opacity="0.51"/>
<rect x="1649" y="650" width="11" height="15" fill="#bcd8ff" opacity="0.69"/>
<rect x="1519" y="684" width="11" height="15" fill="#ffd9a0" opacity="0.42"/>
<rect x="1571" y="684" width="11" height="15" fill="#bcd8ff" opacity="0.61"/>
<rect x="1623" y="718" width="11" height="15" fill="#ffd9a0" opacity="0.72"/>
<rect x="1597" y="752" width="11" height="15" fill="#ffd9a0" opacity="0.76"/>
<rect x="1623" y="752" width="11" height="15" fill="#ffd9a0" opacity="0.43"/>
<rect x="1727" y="563" width="221" height="337" fill="#050a13"/>
<rect x="1852" y="474" width="85" height="89" fill="#050a13"/>
<rect x="1892" y="410" width="4" height="64" fill="#050a13"/>
<circle cx="1894" cy="405" r="4" fill="#ff6b6b" opacity="0.75"/>
<rect x="1767" y="585" width="11" height="15" fill="#bcd8ff" opacity="0.44"/>
<rect x="1793" y="585" width="11" height="15" fill="#ffd9a0" opacity="0.48"/>
<rect x="1897" y="619" width="11" height="15" fill="#bcd8ff" opacity="0.67"/>
<rect x="1819" y="687" width="11" height="15" fill="#bcd8ff" opacity="0.47"/>
<rect x="1767" y="755" width="11" height="15" fill="#ffd9a0" opacity="0.77"/>
<rect x="1845" y="755" width="11" height="15" fill="#ffd9a0" opacity="0.65"/>
<rect x="1897" y="823" width="11" height="15" fill="#ffd9a0" opacity="0.64"/>
<rect x="1974" y="492" width="237" height="408" fill="#050a13"/>
<rect x="2066" y="514" width="11" height="15" fill="#ffd9a0" opacity="0.70"/>
<rect x="1988" y="582" width="11" height="15" fill="#bcd8ff" opacity="0.48"/>
<rect x="1988" y="616" width="11" height="15" fill="#ffd9a0" opacity="0.77"/>
<rect x="2170" y="616" width="11" height="15" fill="#ffd9a0" opacity="0.39"/>
<rect x="2040" y="650" width="11" height="15" fill="#ffd9a0" opacity="0.78"/>
<rect x="2092" y="650" width="11" height="15" fill="#ffd9a0" opacity="0.75"/>
<rect x="2014" y="684" width="11" height="15" fill="#bcd8ff" opacity="0.58"/>
<rect x="2066" y="684" width="11" height="15" fill="#ffd9a0" opacity="0.40"/>
<rect x="1988" y="718" width="11" height="15" fill="#ffd9a0" opacity="0.72"/>
<rect x="2092" y="718" width="11" height="15" fill="#bcd8ff" opacity="0.37"/>
<rect x="2014" y="752" width="11" height="15" fill="#bcd8ff" opacity="0.61"/>
<rect x="2144" y="752" width="11" height="15" fill="#ffd9a0" opacity="0.62"/>
<rect x="2040" y="786" width="11" height="15" fill="#bcd8ff" opacity="0.64"/>
<rect x="2118" y="786" width="11" height="15" fill="#ffd9a0" opacity="0.75"/>
<rect x="2066" y="820" width="11" height="15" fill="#ffd9a0" opacity="0.45"/>
<rect x="2144" y="820" width="11" height="15" fill="#ffd9a0" opacity="0.70"/>
<rect x="2014" y="854" width="11" height="15" fill="#ffd9a0" opacity="0.76"/>
<rect x="2040" y="854" width="11" height="15" fill="#ffd9a0" opacity="0.38"/>
<rect x="2066" y="854" width="11" height="15" fill="#ffd9a0" opacity="0.77"/>
<rect x="2170" y="854" width="11" height="15" fill="#bcd8ff" opacity="0.46"/>
<rect x="2237" y="579" width="143" height="321" fill="#050a13"/>
<rect x="2251" y="601" width="11" height="15" fill="#bcd8ff" opacity="0.77"/>
<rect x="2303" y="601" width="11" height="15" fill="#ffd9a0" opacity="0.77"/>
<rect x="2355" y="601" width="11" height="15" fill="#bcd8ff" opacity="0.46"/>
<rect x="2303" y="635" width="11" height="15" fill="#ffd9a0" opacity="0.73"/>
<rect x="2355" y="635" width="11" height="15" fill="#bcd8ff" opacity="0.43"/>
<rect x="2329" y="669" width="11" height="15" fill="#ffd9a0" opacity="0.75"/>
<rect x="2355" y="669" width="11" height="15" fill="#ffd9a0" opacity="0.57"/>
<rect x="2251" y="703" width="11" height="15" fill="#bcd8ff" opacity="0.48"/>
<rect x="2355" y="703" width="11" height="15" fill="#bcd8ff" opacity="0.36"/>
<rect x="2329" y="737" width="11" height="15" fill="#ffd9a0" opacity="0.64"/>
<rect x="2251" y="805" width="11" height="15" fill="#ffd9a0" opacity="0.42"/>
<rect x="2251" y="873" width="11" height="15" fill="#ffd9a0" opacity="0.46"/>
</svg>